<svg xmlns="http://www.w3.org/2000/svg" xmlns:xlink="http://www.w3.org/1999/xlink" width="123.889" height="123.885" viewBox="0 0 123.889 123.885">
  <defs>
    <filter id="Trazado_119" x="0" y="0" width="123.889" height="123.885" filterUnits="userSpaceOnUse">
      <feOffset dy="3" input="SourceAlpha"/>
      <feGaussianBlur stdDeviation="1.5" result="blur"/>
      <feFlood flood-opacity="0.31"/>
      <feComposite operator="in" in2="blur"/>
      <feComposite in="SourceGraphic"/>
    </filter>
  </defs>
  <g id="Grupo_94" data-name="Grupo 94" transform="translate(-898.055 -240.5)">
    <g transform="matrix(1, 0, 0, 1, 898.06, 240.5)" filter="url(#Trazado_119)">
      <path id="Trazado_119-2" data-name="Trazado 119" d="M229.973,109.467a57.445,57.445,0,1,1-57.445-57.443A57.443,57.443,0,0,1,229.973,109.467Z" transform="translate(-110.58 -50.52)" fill="#2d64cc"/>
    </g>
    <g id="person-24px" transform="translate(925.615 265.463)">
      <path id="Trazado_32" data-name="Trazado 32" d="M26.923,26.923A11.462,11.462,0,1,0,15.462,15.462,11.459,11.459,0,0,0,26.923,26.923Zm0,5.731C19.273,32.654,4,36.494,4,44.116v5.731H49.847V44.116C49.847,36.494,34.574,32.654,26.923,32.654Z" transform="translate(7.462 7.462)" fill="#fff"/>
      <path id="Trazado_33" data-name="Trazado 33" d="M0,0H68.77V68.77H0Z" fill="none"/>
    </g>
  </g>
</svg>
