<svg xmlns="http://www.w3.org/2000/svg" width="17.125" height="21.269" viewBox="0 0 17.125 21.269">
  <g id="Grupo_17" data-name="Grupo 17" opacity="0.7">
    <path id="Trazado_56" data-name="Trazado 56" d="M89.285,164.045H87.992v-1.622a5.414,5.414,0,0,0-10.827,0v1.622h-1.3a1.847,1.847,0,0,0-1.842,1.842V176.42a1.852,1.852,0,0,0,1.842,1.859H89.285a1.858,1.858,0,0,0,1.862-1.859V165.887A1.853,1.853,0,0,0,89.285,164.045Zm-9.675-1.622a2.966,2.966,0,1,1,5.932,0v1.622H79.61Zm3.968,10.983v2.69a.2.2,0,0,1-.213.2H82.075a.2.2,0,0,1-.193-.2v-2.69a2.364,2.364,0,1,1,1.7,0Z" transform="translate(-74.022 -157.011)" fill="#707487"/>
  </g>
</svg>
