<?xml version="1.0" encoding="utf-8"?>
<!-- Generator: Adobe Illustrator 24.0.1, SVG Export Plug-In . SVG Version: 6.00 Build 0)  -->
<svg version="1.1" id="Capa_1" xmlns="http://www.w3.org/2000/svg" xmlns:xlink="http://www.w3.org/1999/xlink" x="0px" y="0px"
	 viewBox="0 0 512 512" style="enable-background:new 0 0 512 512;" xml:space="preserve">
<style type="text/css">
	.st0{fill:#00009F;}
</style>
<path class="st0" d="M507.6,245.4l-68.7-68.7c-4.3-4.3-10.7-5.6-16.3-3.3c-5.6,2.3-9.3,7.8-9.3,13.9v19.9H304.8V98.7h19.9
	c6.1,0,11.5-3.7,13.9-9.3c2.3-5.6,1-12.1-3.3-16.3L266.6,4.4C263.8,1.6,260,0,256,0s-7.8,1.6-10.6,4.4l-68.7,68.7
	c-4.3,4.3-5.6,10.7-3.3,16.3c2.3,5.6,7.8,9.3,13.9,9.3h19.9v108.5H98.7v-19.9c0-6.1-3.7-11.5-9.3-13.9c-5.6-2.3-12.1-1-16.3,3.3
	L4.4,245.4C1.6,248.2,0,252,0,256c0,4,1.6,7.8,4.4,10.6l68.7,68.7c2.9,2.9,6.7,4.4,10.6,4.4c1.9,0,3.9-0.4,5.7-1.1
	c5.6-2.3,9.3-7.8,9.3-13.9v-19.9h108.5v108.5h-19.9c-6.1,0-11.5,3.7-13.9,9.3c-2.3,5.6-1,12.1,3.3,16.3l68.7,68.7
	c2.9,2.9,6.8,4.4,10.6,4.4c3.8,0,7.7-1.5,10.6-4.4l68.7-68.7c4.3-4.3,5.6-10.7,3.3-16.3c-2.3-5.6-7.8-9.3-13.9-9.3h-19.9V304.8
	h108.5v19.9c0,6.1,3.7,11.5,9.3,13.9c1.9,0.8,3.8,1.1,5.7,1.1c3.9,0,7.7-1.5,10.6-4.4l68.7-68.7
	C513.5,260.7,513.5,251.3,507.6,245.4L507.6,245.4z"/>
</svg>
